# Blender 4.0.2
# www.blender.org
o d20_dice
v 0.000900 0.010933 -0.000654
v 0.000900 0.010933 0.000654
v -0.000344 0.010933 0.001058
v -0.001113 0.010933 -0.000000
v -0.000344 0.010933 -0.001058
v 0.000954 0.011021 -0.000000
v -0.000000 0.011372 -0.000000
v 0.000295 0.011021 0.000908
v -0.000772 0.011021 0.000561
v -0.000772 0.011021 -0.000561
v 0.000295 0.011021 -0.000908
v -0.007970 0.005695 -0.004982
v -0.008658 0.004582 -0.004982
v -0.008314 0.003895 -0.006040
v -0.007414 0.004582 -0.006694
v -0.007201 0.005695 -0.006040
v -0.008402 0.005193 -0.004982
v -0.008229 0.005086 -0.005978
v -0.008584 0.004238 -0.005543
v -0.007925 0.004238 -0.006451
v -0.007335 0.005193 -0.006451
v -0.007630 0.005783 -0.005543
v 0.003519 0.005695 -0.008716
v 0.002276 0.005695 -0.009120
v 0.002063 0.004582 -0.009774
v 0.003176 0.003895 -0.009774
v 0.004076 0.004582 -0.009120
v 0.002914 0.005783 -0.008969
v 0.003143 0.005086 -0.009673
v 0.002142 0.005193 -0.009530
v 0.002619 0.004238 -0.009877
v 0.003686 0.004238 -0.009530
v 0.003869 0.005193 -0.008969
v 0.009377 0.005695 0.000654
v 0.009377 0.005695 -0.000654
v 0.009933 0.004582 -0.001058
v 0.010277 0.003895 -0.000000
v 0.009933 0.004582 0.001058
v 0.009431 0.005783 -0.000000
v 0.010171 0.005086 -0.000000
v 0.009726 0.005193 -0.000908
v 0.010203 0.004238 -0.000561
v 0.010203 0.004238 0.000561
v 0.009726 0.005193 0.000908
v 0.002276 0.005695 0.009120
v 0.003519 0.005695 0.008716
v 0.004076 0.004582 0.009120
v 0.003176 0.003895 0.009774
v 0.002063 0.004582 0.009774
v 0.002914 0.005783 0.008969
v 0.003143 0.005086 0.009673
v 0.003869 0.005193 0.008969
v 0.003686 0.004238 0.009530
v 0.002619 0.004238 0.009877
v 0.002142 0.005193 0.009530
v -0.008658 0.004582 0.004982
v -0.007970 0.005695 0.004982
v -0.007201 0.005695 0.006040
v -0.007414 0.004582 0.006694
v -0.008314 0.003895 0.006040
v -0.008402 0.005193 0.004982
v -0.008229 0.005086 0.005978
v -0.007630 0.005783 0.005543
v -0.007335 0.005193 0.006451
v -0.007925 0.004238 0.006451
v -0.008584 0.004238 0.005543
v -0.002063 -0.004582 -0.009774
v -0.003176 -0.003895 -0.009774
v -0.004076 -0.004582 -0.009120
v -0.003519 -0.005695 -0.008716
v -0.002276 -0.005695 -0.009120
v -0.002619 -0.004238 -0.009877
v -0.003143 -0.005086 -0.009673
v -0.003686 -0.004238 -0.009530
v -0.003869 -0.005193 -0.008969
v -0.002914 -0.005783 -0.008969
v -0.002142 -0.005193 -0.009530
v 0.008658 -0.004582 -0.004982
v 0.008314 -0.003895 -0.006040
v 0.007414 -0.004582 -0.006694
v 0.007201 -0.005695 -0.006040
v 0.007970 -0.005695 -0.004982
v 0.008584 -0.004238 -0.005543
v 0.008229 -0.005086 -0.005978
v 0.007925 -0.004238 -0.006451
v 0.007335 -0.005193 -0.006451
v 0.007630 -0.005783 -0.005543
v 0.008402 -0.005193 -0.004982
v 0.007414 -0.004582 0.006694
v 0.008314 -0.003895 0.006040
v 0.008658 -0.004582 0.004982
v 0.007970 -0.005695 0.004982
v 0.007201 -0.005695 0.006040
v 0.007925 -0.004238 0.006451
v 0.008229 -0.005086 0.005978
v 0.008584 -0.004238 0.005543
v 0.008402 -0.005193 0.004982
v 0.007630 -0.005783 0.005543
v 0.007335 -0.005193 0.006451
v -0.004076 -0.004582 0.009120
v -0.003176 -0.003895 0.009774
v -0.002063 -0.004582 0.009774
v -0.002276 -0.005695 0.009120
v -0.003519 -0.005695 0.008716
v -0.003686 -0.004238 0.009530
v -0.003143 -0.005086 0.009673
v -0.002619 -0.004238 0.009877
v -0.002142 -0.005193 0.009530
v -0.002914 -0.005783 0.008969
v -0.003869 -0.005193 0.008969
v -0.009933 -0.004582 -0.001058
v -0.010277 -0.003895 -0.000000
v -0.009933 -0.004582 0.001058
v -0.009377 -0.005695 0.000654
v -0.009377 -0.005695 -0.000654
v -0.010203 -0.004238 -0.000561
v -0.010171 -0.005086 -0.000000
v -0.010203 -0.004238 0.000561
v -0.009726 -0.005193 0.000908
v -0.009431 -0.005783 -0.000000
v -0.009726 -0.005193 -0.000908
v 0.000344 -0.010933 -0.001058
v -0.000900 -0.010933 -0.000654
v -0.000900 -0.010933 0.000654
v 0.000344 -0.010933 0.001058
v 0.001113 -0.010933 -0.000000
v -0.000295 -0.011021 -0.000908
v 0.000000 -0.011372 -0.000000
v -0.000954 -0.011021 -0.000000
v -0.000295 -0.011021 0.000908
v 0.000772 -0.011021 0.000561
v 0.000772 -0.011021 -0.000561
vn -0.6177 0.7861 -0.0237
vn -0.6177 0.7861 0.0237
vn -0.5851 0.8109 -0.0000
vn 0.4734 0.8109 0.3439
vn 0.4858 0.7861 0.3822
vn 0.5136 0.7861 0.3439
vn -0.1808 0.8109 -0.5565
vn -0.1684 0.7861 -0.5948
vn -0.2134 0.7861 -0.5801
vn -0.1808 0.8109 0.5565
vn -0.2134 0.7861 0.5801
vn -0.1684 0.7861 0.5948
vn -0.2801 0.2009 -0.9387
vn -0.3050 0.1607 -0.9387
vn -0.3251 0.2009 -0.9241
vn -0.7985 -0.1607 -0.5802
vn -0.7784 -0.2009 -0.5948
vn -0.8062 -0.2009 -0.5565
vn -0.9793 0.2009 -0.0237
vn -0.9870 0.1607 -0.0000
vn -0.9793 0.2009 0.0237
vn 0.3050 -0.1607 -0.9387
vn 0.3251 -0.2009 -0.9241
vn 0.2801 -0.2009 -0.9387
vn 0.9870 -0.1607 -0.0000
vn 0.9793 -0.2009 0.0237
vn 0.9793 -0.2009 -0.0237
vn 0.3050 -0.1607 0.9387
vn 0.2801 -0.2009 0.9387
vn 0.3251 -0.2009 0.9241
vn 0.8062 0.2009 -0.5565
vn 0.7985 0.1607 -0.5802
vn 0.7784 0.2009 -0.5948
vn 0.7784 0.2009 0.5948
vn 0.7985 0.1607 0.5802
vn 0.8062 0.2009 0.5565
vn -0.3251 0.2009 0.9241
vn -0.3050 0.1607 0.9387
vn -0.2801 0.2009 0.9387
vn -0.7985 -0.1607 0.5802
vn -0.8062 -0.2009 0.5565
vn -0.7784 -0.2009 0.5948
vn -0.4858 -0.7861 -0.3822
vn -0.4734 -0.8109 -0.3439
vn -0.5136 -0.7861 -0.3439
vn 0.2134 -0.7861 -0.5801
vn 0.1808 -0.8109 -0.5565
vn 0.1684 -0.7861 -0.5948
vn 0.6177 -0.7861 0.0237
vn 0.5851 -0.8109 -0.0000
vn 0.6177 -0.7861 -0.0237
vn 0.1684 -0.7861 0.5948
vn 0.1808 -0.8109 0.5565
vn 0.2134 -0.7861 0.5801
vn -0.5136 -0.7861 0.3439
vn -0.4734 -0.8109 0.3439
vn -0.4858 -0.7861 0.3822
vn 0.4734 0.8109 -0.3439
vn 0.1566 0.8621 -0.4819
vn -0.0000 1.0000 -0.0000
vn 0.5067 0.8621 -0.0000
vn 0.1566 0.8621 0.4819
vn -0.4099 0.8621 0.2978
vn -0.4099 0.8621 -0.2978
vn -0.4405 0.8388 -0.3201
vn -0.7236 0.4472 -0.5257
vn -0.8504 0.5256 -0.0222
vn -0.9472 0.0189 -0.3200
vn -0.5971 0.0189 -0.8020
vn -0.2839 0.5256 -0.8020
vn 0.4858 0.7861 -0.3822
vn 0.6750 0.5256 -0.5179
vn 0.2764 0.4472 -0.8507
vn 0.1683 0.8388 -0.5178
vn -0.2417 0.5256 -0.8157
vn 0.0117 0.0189 -0.9998
vn 0.5782 0.0189 -0.8157
vn 0.7011 0.5256 0.4819
vn 0.8944 0.4472 -0.0000
vn 0.5445 0.8388 -0.0000
vn 0.5136 0.7861 -0.3439
vn 0.7011 0.5256 -0.4819
vn 0.9544 0.0189 -0.2978
vn 0.9544 0.0189 0.2978
vn -0.2417 0.5256 0.8157
vn 0.2764 0.4472 0.8507
vn 0.1683 0.8388 0.5178
vn 0.6750 0.5256 0.5178
vn 0.5782 0.0189 0.8157
vn 0.0117 0.0189 0.9998
vn -0.9472 0.0189 0.3201
vn -0.7236 0.4472 0.5257
vn -0.8504 0.5256 0.0222
vn -0.4405 0.8388 0.3200
vn -0.2839 0.5256 0.8020
vn -0.5971 0.0189 0.8020
vn 0.2417 -0.5256 -0.8157
vn -0.2764 -0.4472 -0.8507
vn -0.0117 -0.0189 -0.9998
vn -0.5782 -0.0189 -0.8157
vn -0.6750 -0.5256 -0.5178
vn -0.1683 -0.8388 -0.5178
vn 0.8504 -0.5256 -0.0222
vn 0.7236 -0.4472 -0.5257
vn 0.9472 -0.0189 -0.3200
vn 0.5971 -0.0189 -0.8020
vn 0.2839 -0.5256 -0.8020
vn 0.4405 -0.8388 -0.3200
vn 0.2839 -0.5256 0.8020
vn 0.7236 -0.4472 0.5257
vn 0.5971 -0.0189 0.8020
vn 0.9472 -0.0189 0.3200
vn 0.8504 -0.5256 0.0222
vn 0.4405 -0.8388 0.3200
vn -0.6750 -0.5256 0.5178
vn -0.2764 -0.4472 0.8507
vn -0.5782 -0.0189 0.8157
vn -0.0117 -0.0189 0.9998
vn 0.2417 -0.5256 0.8157
vn -0.1683 -0.8388 0.5178
vn -0.7011 -0.5256 -0.4819
vn -0.8944 -0.4472 -0.0000
vn -0.9544 -0.0189 -0.2978
vn -0.9544 -0.0189 0.2978
vn -0.7011 -0.5256 0.4819
vn -0.5445 -0.8388 -0.0000
vn 0.4100 -0.8621 -0.2978
vn -0.0000 -1.0000 -0.0000
vn -0.1566 -0.8621 -0.4819
vn -0.5067 -0.8621 -0.0000
vn -0.1566 -0.8621 0.4819
vn 0.4099 -0.8621 0.2978
vt 0.430188 0.781385
vt 0.321325 0.969692
vt 0.538591 0.969826
vt 0.288148 0.535207
vt 0.179381 0.723434
vt 0.396776 0.723517
vt 0.390184 0.765113
vt 0.172801 0.762499
vt 0.278981 0.952054
vt 0.589997 0.535196
vt 0.481229 0.723425
vt 0.698623 0.723508
vt 0.846783 0.024005
vt 0.629384 0.024320
vt 0.738114 0.212427
vt 0.478448 0.225834
vt 0.695722 0.225700
vt 0.586851 0.037385
vt 0.548540 0.519472
vt 0.331269 0.519337
vt 0.439676 0.707781
vt 0.950716 0.372872
vt 0.950582 0.155599
vt 0.762271 0.264466
vt 0.031731 0.515338
vt 0.140137 0.703781
vt 0.249002 0.515472
vt 0.188724 0.271335
vt 0.297130 0.459781
vt 0.405997 0.271470
vt 0.438344 0.207791
vt 0.546748 0.019344
vt 0.329476 0.019478
vt 0.180371 0.225691
vt 0.397642 0.225826
vt 0.289239 0.037381
vt 0.035161 0.469691
vt 0.252439 0.469826
vt 0.144031 0.281377
vt 0.031715 0.019342
vt 0.140115 0.207783
vt 0.248981 0.019477
vt 0.616013 0.491785
vt 0.724882 0.303472
vt 0.507607 0.303337
vt 0.654455 0.559470
vt 0.763323 0.747784
vt 0.871725 0.559336
vt 0.627427 0.969655
vt 0.844695 0.969790
vt 0.736291 0.781347
vt 0.473959 0.767392
vt 0.582584 0.955701
vt 0.691351 0.767475
vt 0.447451 0.287209
vt 0.338680 0.475440
vt 0.556078 0.475523
vt 0.653961 0.513691
vt 0.641172 0.506811
vt 0.631124 0.526885
vt 0.653529 0.528281
vt 0.300498 0.527574
vt 0.288140 0.508834
vt 0.275725 0.527536
vt 0.602347 0.527563
vt 0.589988 0.508822
vt 0.577574 0.527525
vt 0.539008 0.984281
vt 0.561266 0.982954
vt 0.551339 0.962988
vt 0.403002 0.772223
vt 0.413340 0.752126
vt 0.390800 0.750472
vt 0.442665 0.773699
vt 0.430219 0.754835
vt 0.417725 0.773668
vt 0.561329 0.526352
vt 0.571376 0.506277
vt 0.548972 0.504882
vt 0.465699 0.218997
vt 0.455772 0.238963
vt 0.478030 0.240290
vt 0.725694 0.220094
vt 0.738103 0.238800
vt 0.750466 0.220064
vt 0.266459 0.959553
vt 0.278614 0.978425
vt 0.291229 0.959856
vt 0.762829 0.325376
vt 0.775307 0.317690
vt 0.762860 0.298825
vt 0.750366 0.317659
vt 0.172545 0.748036
vt 0.150275 0.749118
vt 0.159981 0.769192
vt 0.859697 0.030942
vt 0.869762 0.010706
vt 0.847202 0.009357
vt 0.943879 0.385621
vt 0.963844 0.395548
vt 0.965172 0.373290
vt 0.329044 0.004888
vt 0.306639 0.006284
vt 0.316687 0.026358
vt 0.397213 0.738028
vt 0.419620 0.736696
vt 0.409631 0.716594
vt 0.871236 0.513826
vt 0.871653 0.528281
vt 0.893911 0.526953
vt 0.883985 0.506988
vt 0.425882 0.215507
vt 0.438376 0.234340
vt 0.450822 0.215476
vt 0.031313 0.500882
vt 0.009055 0.502209
vt 0.018982 0.522175
vt 0.301716 0.029696
vt 0.289269 0.010832
vt 0.276776 0.029665
vt 0.699060 0.738020
vt 0.721468 0.736688
vt 0.711478 0.716585
vt 0.166596 0.716556
vt 0.156545 0.736628
vt 0.178950 0.738028
vt 0.167582 0.218812
vt 0.157535 0.238885
vt 0.179939 0.240281
vt 0.188306 0.256879
vt 0.166048 0.258207
vt 0.175975 0.278172
vt 0.156509 0.273691
vt 0.144062 0.254826
vt 0.131567 0.273660
vt 0.427199 0.715467
vt 0.439645 0.734331
vt 0.452139 0.715497
vt 0.308535 0.962812
vt 0.298488 0.982886
vt 0.320893 0.984281
vt 0.468444 0.716547
vt 0.458392 0.736620
vt 0.480797 0.738019
vt 0.022372 0.462811
vt 0.012325 0.482885
vt 0.034729 0.484281
vt 0.031298 0.004887
vt 0.009040 0.006214
vt 0.018967 0.026179
vt 0.754554 0.252003
vt 0.735721 0.264497
vt 0.754585 0.276944
vt 0.628933 0.009861
vt 0.606679 0.011244
vt 0.616656 0.031185
vt 0.696154 0.240290
vt 0.718559 0.238894
vt 0.708511 0.218820
vt 0.603536 0.499471
vt 0.615983 0.518336
vt 0.628477 0.499502
vt 0.884473 0.566173
vt 0.894401 0.546207
vt 0.872143 0.544880
vt 0.261791 0.522352
vt 0.271839 0.502278
vt 0.249434 0.500882
vt 0.559496 0.026181
vt 0.569423 0.006215
vt 0.547165 0.004888
vt 0.965172 0.155167
vt 0.963776 0.132763
vt 0.943702 0.142810
vt 0.654022 0.544881
vt 0.631617 0.546277
vt 0.641665 0.566351
vt 0.748769 0.773661
vt 0.736321 0.754797
vt 0.723828 0.773630
vt 0.418786 0.278349
vt 0.428834 0.258276
vt 0.406429 0.256879
vt 0.398059 0.240281
vt 0.420317 0.238954
vt 0.410390 0.218988
vt 0.127660 0.711467
vt 0.140107 0.730331
vt 0.152601 0.711498
vt 0.614638 0.962776
vt 0.604590 0.982849
vt 0.626994 0.984245
vt 0.704136 0.774353
vt 0.714187 0.754280
vt 0.691783 0.752880
vt 0.261770 0.026356
vt 0.271817 0.006283
vt 0.249413 0.004887
vt 0.252857 0.484281
vt 0.275115 0.482954
vt 0.265188 0.462988
vt 0.284652 0.467466
vt 0.297099 0.486331
vt 0.309593 0.467497
vt 0.473522 0.752881
vt 0.451114 0.754212
vt 0.461104 0.774315
vt 0.556514 0.490034
vt 0.578923 0.488703
vt 0.568933 0.468599
vt 0.599315 0.029669
vt 0.586821 0.010835
vt 0.574374 0.029700
vt 0.330851 0.504882
vt 0.308593 0.506209
vt 0.318520 0.526174
vt 0.127638 0.215468
vt 0.140084 0.234332
vt 0.152578 0.215499
vt 0.459800 0.279574
vt 0.447442 0.260834
vt 0.435028 0.279537
vt 0.507189 0.288882
vt 0.484931 0.290209
vt 0.494858 0.310174
vt 0.750860 0.755500
vt 0.763354 0.774333
vt 0.775800 0.755469
vt 0.737670 0.310352
vt 0.747718 0.290277
vt 0.725313 0.288881
vt 0.325895 0.468563
vt 0.315845 0.488635
vt 0.338249 0.490035
vt 0.570234 0.963336
vt 0.582592 0.982075
vt 0.595007 0.963372
vt 0.845113 0.984245
vt 0.867371 0.982918
vt 0.857443 0.962952
s 1
f 12/1/1 57/2/2 4/3/3
f 2/4/4 46/5/5 34/6/6
f 5/7/7 24/8/8 16/9/9
f 3/10/10 58/11/11 45/12/12
f 25/13/13 68/14/14 15/15/15
f 14/16/16 69/17/17 111/18/18
f 13/19/19 112/20/20 56/21/21
f 26/22/22 80/23/23 67/24/24
f 37/25/25 91/26/26 78/27/27
f 48/28/28 102/29/29 89/30/30
f 36/31/31 79/32/32 27/33/33
f 47/34/34 90/35/35 38/36/36
f 59/37/37 101/38/38 49/39/39
f 60/40/40 113/41/41 100/42/42
f 70/43/43 123/44/44 115/45/45
f 81/46/46 122/47/47 71/48/48
f 92/49/49 126/50/50 82/51/51
f 103/52/52 125/53/53 93/54/54
f 114/55/55 124/56/56 104/57/57
f 1/58/58 11/59/59 7/60/60 6/61/61
f 2/4/4 6/62/61 7/63/60 8/64/62
f 3/10/10 8/65/62 7/66/60 9/67/63
f 4/3/3 9/68/63 7/69/60 10/70/64
f 5/7/7 10/71/64 7/72/60 11/73/59
f 12/1/1 22/74/65 18/75/66 17/76/67
f 13/19/19 17/77/67 18/78/66 19/79/68
f 14/16/16 19/80/68 18/81/66 20/82/69
f 15/15/15 20/83/69 18/84/66 21/85/70
f 16/9/9 21/86/70 18/87/66 22/88/65
f 23/89/71 33/90/72 29/91/73 28/92/74
f 24/8/8 28/93/74 29/94/73 30/95/75
f 25/13/13 30/96/75 29/97/73 31/98/76
f 26/22/22 31/99/76 29/100/73 32/101/77
f 27/33/33 32/102/77 29/103/73 33/104/72
f 34/6/6 44/105/78 40/106/79 39/107/80
f 35/108/81 39/109/80 40/110/79 41/111/82
f 36/31/31 41/112/82 40/113/79 42/114/83
f 37/25/25 42/115/83 40/116/79 43/117/84
f 38/36/36 43/118/84 40/119/79 44/120/78
f 45/12/12 55/121/85 51/122/86 50/123/87
f 46/5/5 50/124/87 51/125/86 52/126/88
f 47/34/34 52/127/88 51/128/86 53/129/89
f 48/28/28 53/130/89 51/131/86 54/132/90
f 49/39/39 54/133/90 51/134/86 55/135/85
f 56/21/21 66/136/91 62/137/92 61/138/93
f 57/2/2 61/139/93 62/140/92 63/141/94
f 58/11/11 63/142/94 62/143/92 64/144/95
f 59/37/37 64/145/95 62/146/92 65/147/96
f 60/40/40 65/148/96 62/149/92 66/150/91
f 67/24/24 77/151/97 73/152/98 72/153/99
f 68/14/14 72/154/99 73/155/98 74/156/100
f 69/17/17 74/157/100 73/158/98 75/159/101
f 70/43/43 75/160/101 73/161/98 76/162/102
f 71/48/48 76/163/102 73/164/98 77/165/97
f 78/27/27 88/166/103 84/167/104 83/168/105
f 79/32/32 83/169/105 84/170/104 85/171/106
f 80/23/23 85/172/106 84/173/104 86/174/107
f 81/46/46 86/175/107 84/176/104 87/177/108
f 82/51/51 87/178/108 84/179/104 88/180/103
f 89/30/30 99/181/109 95/182/110 94/183/111
f 90/35/35 94/184/111 95/185/110 96/186/112
f 91/26/26 96/187/112 95/188/110 97/189/113
f 92/49/49 97/190/113 95/191/110 98/192/114
f 93/54/54 98/193/114 95/194/110 99/195/109
f 100/42/42 110/196/115 106/197/116 105/198/117
f 101/38/38 105/199/117 106/200/116 107/201/118
f 102/29/29 107/202/118 106/203/116 108/204/119
f 103/52/52 108/205/119 106/206/116 109/207/120
f 104/57/57 109/208/120 106/209/116 110/210/115
f 111/18/18 121/211/121 117/212/122 116/213/123
f 112/20/20 116/214/123 117/215/122 118/216/124
f 113/41/41 118/217/124 117/218/122 119/219/125
f 114/55/55 119/220/125 117/221/122 120/222/126
f 115/45/45 120/223/126 117/224/122 121/225/121
f 122/47/47 132/226/127 128/227/128 127/228/129
f 123/44/44 127/229/129 128/230/128 129/231/130
f 124/56/56 129/232/130 128/233/128 130/234/131
f 125/53/53 130/235/131 128/236/128 131/237/132
f 126/50/50 131/238/132 128/239/128 132/240/127
f 23/89/71 28/92/74 11/59/59 1/58/58
f 28/93/74 24/8/8 5/7/7 11/73/59
f 4/3/3 10/70/64 22/74/65 12/1/1
f 10/71/64 5/7/7 16/9/9 22/88/65
f 15/15/15 21/85/70 30/96/75 25/13/13
f 21/86/70 16/9/9 24/8/8 30/95/75
f 56/21/21 61/138/93 17/77/67 13/19/19
f 61/139/93 57/2/2 12/1/1 17/76/67
f 3/10/10 9/67/63 63/142/94 58/11/11
f 9/68/63 4/3/3 57/2/2 63/141/94
f 34/6/6 39/107/80 6/62/61 2/4/4
f 39/109/80 35/108/81 1/58/58 6/61/61
f 27/33/33 33/104/72 41/112/82 36/31/31
f 33/90/72 23/89/71 35/108/81 41/111/82
f 45/12/12 50/123/87 8/65/62 3/10/10
f 50/124/87 46/5/5 2/4/4 8/64/62
f 38/36/36 44/120/78 52/127/88 47/34/34
f 44/105/78 34/6/6 46/5/5 52/126/88
f 49/39/39 55/135/85 64/145/95 59/37/37
f 55/121/85 45/12/12 58/11/11 64/144/95
f 111/18/18 116/213/123 19/80/68 14/16/16
f 116/214/123 112/20/20 13/19/19 19/79/68
f 60/40/40 66/150/91 118/217/124 113/41/41
f 66/136/91 56/21/21 112/20/20 118/216/124
f 67/24/24 72/153/99 31/99/76 26/22/22
f 72/154/99 68/14/14 25/13/13 31/98/76
f 14/16/16 20/82/69 74/157/100 69/17/17
f 20/83/69 15/15/15 68/14/14 74/156/100
f 78/27/27 83/168/105 42/115/83 37/25/25
f 83/169/105 79/32/32 36/31/31 42/114/83
f 26/22/22 32/101/77 85/172/106 80/23/23
f 32/102/77 27/33/33 79/32/32 85/171/106
f 89/30/30 94/183/111 53/130/89 48/28/28
f 94/184/111 90/35/35 47/34/34 53/129/89
f 37/25/25 43/117/84 96/187/112 91/26/26
f 43/118/84 38/36/36 90/35/35 96/186/112
f 100/42/42 105/198/117 65/148/96 60/40/40
f 105/199/117 101/38/38 59/37/37 65/147/96
f 48/28/28 54/132/90 107/202/118 102/29/29
f 54/133/90 49/39/39 101/38/38 107/201/118
f 115/45/45 121/225/121 75/160/101 70/43/43
f 121/211/121 111/18/18 69/17/17 75/159/101
f 71/48/48 77/165/97 86/175/107 81/46/46
f 77/151/97 67/24/24 80/23/23 86/174/107
f 82/51/51 88/180/103 97/190/113 92/49/49
f 88/166/103 78/27/27 91/26/26 97/189/113
f 93/54/54 99/195/109 108/205/119 103/52/52
f 99/181/109 89/30/30 102/29/29 108/204/119
f 104/57/57 110/210/115 119/220/125 114/55/55
f 110/196/115 100/42/42 113/41/41 119/219/125
f 122/47/47 127/228/129 76/163/102 71/48/48
f 127/229/129 123/44/44 70/43/43 76/162/102
f 114/55/55 120/222/126 129/232/130 124/56/56
f 120/223/126 115/45/45 123/44/44 129/231/130
f 126/50/50 132/240/127 87/178/108 82/51/51
f 132/226/127 122/47/47 81/46/46 87/177/108
f 125/53/53 131/237/132 98/193/114 93/54/54
f 131/238/132 126/50/50 92/49/49 98/192/114
f 124/56/56 130/234/131 109/208/120 104/57/57
f 130/235/131 125/53/53 103/52/52 109/207/120
f 1/58/58 35/108/81 23/89/71
