# Blender 4.0.2
# www.blender.org
o crystal
v 0.000000 0.049978 -0.024989
v 0.021641 0.049978 -0.012494
v 0.021641 0.049978 0.012494
v -0.000000 0.049978 0.024989
v -0.021641 0.049978 0.012494
v -0.021641 0.049978 -0.012494
v 0.000000 0.099956 -0.000000
v 0.000000 0.000000 -0.000000
vn 0.4588 0.3974 -0.7947
vn 0.9177 0.3974 -0.0000
vn 0.4588 0.3974 0.7947
vn -0.4588 0.3974 0.7947
vn -0.9177 0.3974 -0.0000
vn -0.4588 0.3974 -0.7947
vn 0.4588 -0.3974 -0.7947
vn 0.9177 -0.3974 -0.0000
vn 0.4588 -0.3974 0.7947
vn -0.4588 -0.3974 0.7947
vn -0.9177 -0.3974 -0.0000
vn -0.4588 -0.3974 -0.7947
vt 0.658224 0.334882
vt 0.583333 0.661320
vt 0.508443 0.334882
vt 0.324890 0.334882
vt 0.250000 0.661320
vt 0.175110 0.334882
vt 0.008443 0.334882
vt 0.083333 0.008443
vt 0.158224 0.334882
vt 0.491557 0.334882
vt 0.416667 0.661320
vt 0.341777 0.334882
vt 0.841777 0.334882
vt 0.916667 0.008443
vt 0.991557 0.334882
vt 0.675110 0.334882
vt 0.750000 0.008443
vt 0.824890 0.334882
vt 0.583333 0.008443
vt 0.250000 0.008443
vt 0.083333 0.661320
vt 0.416667 0.008443
vt 0.916667 0.661320
vt 0.750000 0.661320
s 0
f 1/1/1 7/2/1 2/3/1
f 2/4/2 7/5/2 3/6/2
f 3/7/3 7/8/3 4/9/3
f 4/10/4 7/11/4 5/12/4
f 5/13/5 7/14/5 6/15/5
f 6/16/6 7/17/6 1/18/6
f 1/1/7 2/3/7 8/19/7
f 2/4/8 3/6/8 8/20/8
f 3/7/9 4/9/9 8/21/9
f 4/10/10 5/12/10 8/22/10
f 5/13/11 6/15/11 8/23/11
f 6/16/12 1/18/12 8/24/12
