# Exported from Wings 3D 2.3
mtllib cubeCross.mtl
o Cube1
#8 vertices, 12 faces
v -0.88200000 -0.88200000 -0.88200000
v -0.88200000 -0.88200000 0.88200000
v -0.88200000 0.88200000 -0.88200000
v -0.88200000 0.88200000 0.88200000
v 0.88200000 -0.88200000 -0.88200000
v 0.88200000 -0.88200000 0.88200000
v 0.88200000 0.88200000 -0.88200000
v 0.88200000 0.88200000 0.88200000
vt 1.4536511e-2 0.35160702
vt 1.4607316e-2 0.59144124
vt 0.25437535 0.35153698
vt 0.25443636 0.59136581
vt 0.49394406 0.83105565
vt 0.49422414 0.35148475
vt 0.49425547 0.59129512
vt 0.49439900 0.11162996
vt 0.73375158 0.83139765
vt 0.73402720 0.35161180
vt 0.73414084 0.59149071
vt 0.73421799 0.11179881
vt 0.97377772 0.35135853
vt 0.97405797 0.59115961
vn -0.57735027 -0.57735027 -0.57735027
vn -0.57735027 -0.57735027 0.57735027
vn -0.57735027 0.57735027 -0.57735027
vn -0.57735027 0.57735027 0.57735027
vn 0.57735027 -0.57735027 -0.57735027
vn 0.57735027 -0.57735027 0.57735027
vn 0.57735027 0.57735027 -0.57735027
vn 0.57735027 0.57735027 0.57735027
g Cube1_Cube1_auv
usemtl Cube1_auv
s 1
f 1/6/1 5/7/5 2/3/2
f 2/8/2 3/10/3 1/6/1
f 2/3/2 5/7/5 6/4/6
f 2/3/2 8/2/8 4/1/4
f 3/10/3 5/7/5 1/6/1
f 3/10/3 8/14/8 7/11/7
f 4/12/4 3/10/3 2/8/2
f 4/13/4 8/14/8 3/10/3
f 5/7/5 8/9/8 6/5/6
f 6/4/6 8/2/8 2/3/2
f 7/11/7 5/7/5 3/10/3
f 7/11/7 8/9/8 5/7/5
