# Exported from Wings 3D 2.3
mtllib cylSimple.mtl
o Cylinder1
#32 vertices, 60 faces
v 1.00000000 1.00000000 0.0000000e+0
v 0.92387953 1.00000000 0.38268343
v 0.70710678 1.00000000 0.70710678
v 0.38268343 1.00000000 0.92387953
v 6.1232340e-17 1.00000000 1.00000000
v -0.38268343 1.00000000 0.92387953
v -0.70710678 1.00000000 0.70710678
v -0.92387953 1.00000000 0.38268343
v -1.00000000 1.00000000 1.2246468e-16
v -0.92387953 1.00000000 -0.38268343
v -0.70710678 1.00000000 -0.70710678
v -0.38268343 1.00000000 -0.92387953
v -1.8369702e-16 1.00000000 -1.00000000
v 0.38268343 1.00000000 -0.92387953
v 0.70710678 1.00000000 -0.70710678
v 0.92387953 1.00000000 -0.38268343
v 1.00000000 -1.00000000 0.0000000e+0
v 0.92387953 -1.00000000 0.38268343
v 0.70710678 -1.00000000 0.70710678
v 0.38268343 -1.00000000 0.92387953
v 6.1232340e-17 -1.00000000 1.00000000
v -0.38268343 -1.00000000 0.92387953
v -0.70710678 -1.00000000 0.70710678
v -0.92387953 -1.00000000 0.38268343
v -1.00000000 -1.00000000 1.2246468e-16
v -0.92387953 -1.00000000 -0.38268343
v -0.70710678 -1.00000000 -0.70710678
v -0.38268343 -1.00000000 -0.92387953
v -1.8369702e-16 -1.00000000 -1.00000000
v 0.38268343 -1.00000000 -0.92387953
v 0.70710678 -1.00000000 -0.70710678
v 0.92387953 -1.00000000 -0.38268343
vt 0.0000000e+0 0.61804285
vt 5.0139216e-2 0.57943260
vt 0.10027397 0.54081994
vt 0.15040572 0.50220337
vt 0.16940797 0.16990230
vt 0.17872886 0.10727807
vt 0.18475274 0.23134368
vt 0.19793207 0.87505771
vt 0.20052708 0.46358007
vt 0.21128732 5.3003153e-2
vt 0.22243581 0.28224645
vt 0.24807382 0.83644882
vt 0.25064289 0.42494380
vt 0.26211882 1.5335023e-2
vt 0.27672710 0.31485611
vt 0.29821922 0.79784127
vt 0.30073265 0.38628982
vt 0.32347959 2.2204460e-16
vt 0.33936486 0.32420123
vt 0.34836628 0.75923589
vt 0.35080831 0.34759500
vt 0.38602646 9.3226330e-3
vt 0.39852135 0.72063415
vt 0.40081268 0.30885217
vt 0.44023975 4.1873199e-2
vt 0.44867944 0.68204208
vt 0.45136421 0.27078610
vt 0.47787231 9.2686749e-2
vt 0.48391484 0.21653205
vt 0.49320455 0.15402013
vt 0.49885948 0.64346236
vt 0.50136773 0.23201840
vt 0.54905051 0.60491939
vt 0.55143429 0.19329107
vt 0.56232239 0.68504666
vt 0.56900757 0.62205711
vt 0.58026116 0.74579295
vt 0.59930637 0.56641577
vt 0.60151602 0.15460874
vt 0.62008363 0.79504984
vt 0.64895956 0.52704766
vt 0.65161812 0.11594020
vt 0.67571916 0.82532456
vt 0.69918562 0.48852920
vt 0.70172572 7.7287636e-2
vt 0.70956416 0.50920622
vt 0.73869272 0.83201734
vt 0.74934898 0.44997104
vt 0.75183983 3.8640657e-2
vt 0.77241189 0.51589865
vt 0.79941617 0.81412002
vt 0.79949998 0.41137158
vt 0.80195652 0.0000000e+0
vt 0.82793710 0.54612640
vt 0.84864836 0.77436772
vt 0.84963149 0.37275952
vt 0.86768004 0.59529946
vt 0.87890159 0.71882065
vt 0.88558046 0.65594012
vt 0.89975899 0.33413340
vt 0.94988052 0.29550242
vt 1.00000000 0.25686580
vn 0.89090915 0.45418155 -1.2606070e-16
vn 0.82309273 0.45418155 0.34093617
vn 0.38696817 0.83696551 0.38696817
vn 0.30398942 0.60744384 0.73389537
vn 0.0000000e+0 0.83696551 0.54725564
vn -0.30398942 0.60744384 0.73389537
vn -0.38696817 0.83696551 0.38696817
vn -0.73389537 0.60744384 0.30398942
vn -0.89090915 0.45418155 1.1345463e-16
vn -0.82309273 0.45418155 -0.34093617
vn -0.38696817 0.83696551 -0.38696817
vn -0.30398942 0.60744384 -0.73389537
vn 0.0000000e+0 0.83696551 -0.54725564
vn 0.30398942 0.60744384 -0.73389537
vn 0.38696817 0.83696551 -0.38696817
vn 0.73389537 0.60744384 -0.30398942
vn 0.96901550 -0.24699991 -1.3711249e-16
vn 0.50559828 -0.83696551 0.20942567
vn 0.56169920 -0.60744384 0.56169920
vn 0.20942567 -0.83696551 0.50559828
vn 0.0000000e+0 -0.60744384 0.79436263
vn -0.20942567 -0.83696551 0.50559828
vn -0.56169920 -0.60744384 0.56169920
vn -0.64691385 -0.71393252 0.26796049
vn -0.96901550 -0.24699991 1.2340124e-16
vn -0.50559828 -0.83696551 -0.20942567
vn -0.56169920 -0.60744384 -0.56169920
vn -0.20942567 -0.83696551 -0.50559828
vn -1.1239969e-16 -0.60744384 -0.79436263
vn 0.20942567 -0.83696551 -0.50559828
vn 0.56169920 -0.60744384 -0.56169920
vn 0.64691385 -0.71393252 -0.26796049
g Cylinder1_Cylinder1_auv
usemtl Cylinder1_auv
s 1
f 1/10/1 16/14/16 2/6/2
f 1/2/1 17/12/17 16/1/16
f 2/6/2 16/14/16 3/5/3
f 2/3/2 17/12/17 1/2/1
f 2/3/2 19/20/19 18/16/18
f 3/5/3 15/18/15 4/7/4
f 3/4/3 19/20/19 2/3/2
f 4/7/4 14/22/14 5/11/5
f 4/9/4 19/20/19 3/4/3
f 4/9/4 21/26/21 20/23/20
f 5/11/5 13/25/13 6/15/6
f 5/13/5 21/26/21 4/9/4
f 6/15/6 12/28/12 7/19/7
f 6/17/6 21/26/21 5/13/5
f 6/17/6 23/33/23 22/31/22
f 7/19/7 11/30/11 8/24/8
f 7/21/7 23/33/23 6/17/6
f 8/24/8 10/29/10 9/27/9
f 8/24/8 23/33/23 7/21/7
f 8/24/8 25/41/25 24/38/24
f 9/27/9 25/41/25 8/24/8
f 10/29/10 8/24/8 11/30/11
f 10/32/10 25/41/25 9/27/9
f 10/32/10 27/48/27 26/44/26
f 11/30/11 7/19/7 12/28/12
f 11/34/11 27/48/27 10/32/10
f 12/28/12 6/15/6 13/25/13
f 12/39/12 27/48/27 11/34/11
f 12/39/12 29/56/29 28/52/28
f 13/25/13 5/11/5 14/22/14
f 13/42/13 29/56/29 12/39/12
f 14/22/14 4/7/4 15/18/15
f 14/45/14 29/56/29 13/42/13
f 14/45/14 31/61/31 30/60/30
f 15/18/15 3/5/3 16/14/16
f 15/49/15 31/61/31 14/45/14
f 16/1/16 17/12/17 32/8/32
f 16/53/16 31/61/31 15/49/15
f 18/16/18 17/12/17 2/3/2
f 18/47/18 32/55/32 17/51/17
f 19/43/19 31/58/31 18/47/18
f 20/23/20 19/20/19 4/9/4
f 20/40/20 30/59/30 19/43/19
f 21/37/21 29/57/29 20/40/20
f 22/31/22 21/26/21 6/17/6
f 22/35/22 28/54/28 21/37/21
f 23/36/23 27/50/27 22/35/22
f 24/38/24 23/33/23 8/24/8
f 24/38/24 26/46/26 23/36/23
f 25/41/25 26/46/26 24/38/24
f 26/44/26 25/41/25 10/32/10
f 27/50/27 23/36/23 26/46/26
f 28/54/28 22/35/22 27/50/27
f 28/52/28 27/48/27 12/39/12
f 29/57/29 21/37/21 28/54/28
f 30/59/30 20/40/20 29/57/29
f 30/60/30 29/56/29 14/45/14
f 31/58/31 19/43/19 30/59/30
f 32/55/32 18/47/18 31/58/31
f 32/62/32 31/61/31 16/53/16
