# Exported from Wings 3D 2.3
mtllib cylSimpleReoriented.mtl
o Cylinder1
#32 vertices, 60 faces
v -1.00000000 2.18425566 0.20415435
v -1.00000000 2.03161190 0.56323765
v -1.00000000 1.75317222 0.83657313
v -1.00000000 1.39132655 0.98254793
v -1.00000000 1.00116260 0.97893871
v -1.00000000 0.64207929 0.82629495
v -1.00000000 0.36874382 0.54785528
v -1.00000000 0.22276902 0.18600960
v -1.00000000 0.22637823 -0.20415435
v -1.00000000 0.37902199 -0.56323765
v -1.00000000 0.65746167 -0.83657313
v -1.00000000 1.01930734 -0.98254793
v -1.00000000 1.40947130 -0.97893871
v -1.00000000 1.76855460 -0.82629495
v -1.00000000 2.04189007 -0.54785528
v -1.00000000 2.18786487 -0.18600960
v 1.00000000 2.18425566 0.20415435
v 1.00000000 2.03161190 0.56323765
v 1.00000000 1.75317222 0.83657313
v 1.00000000 1.39132655 0.98254793
v 1.00000000 1.00116260 0.97893871
v 1.00000000 0.64207929 0.82629495
v 1.00000000 0.36874382 0.54785528
v 1.00000000 0.22276902 0.18600960
v 1.00000000 0.22637823 -0.20415435
v 1.00000000 0.37902199 -0.56323765
v 1.00000000 0.65746167 -0.83657313
v 1.00000000 1.01930734 -0.98254793
v 1.00000000 1.40947130 -0.97893871
v 1.00000000 1.76855460 -0.82629495
v 1.00000000 2.04189007 -0.54785528
v 1.00000000 2.18786487 -0.18600960
vt 2.6584575e-2 0.49178948
vt 2.7942507e-2 0.43005569
vt 4.8964536e-2 0.54936538
vt 5.2822116e-2 0.37356143
vt 9.1684070e-2 0.59401521
vt 9.7427022e-2 0.33090260
vt 0.14824633 0.61893553
vt 0.15495997 0.30856545
vt 0.21004400 0.62032457
vt 0.21665864 0.30994007
vt 0.26766919 0.59796261
vt 0.27313011 0.33480544
vt 0.31234581 0.55524714
vt 0.31578168 0.37936404
vt 0.33594677 0.99273763
vt 0.33616402 0.93097415
vt 0.33637675 0.86921268
vt 0.33658467 0.80745119
vt 0.33678117 0.74569367
vt 0.33696436 0.68393268
vt 0.33711830 0.62218119
vt 0.33723232 0.56041614
vt 0.33726667 0.49867735
vt 0.33815024 0.43692143
vt 0.33816490 0.37516842
vt 0.33824840 0.31339094
vt 0.33837567 0.25162868
vt 0.33852577 0.18985896
vt 0.33869148 0.12809456
vt 0.33886539 6.6328479e-2
vt 0.33904572 4.5641870e-3
vt 0.65255682 0.99383973
vt 0.65277664 0.93207511
vt 0.65299968 0.87030849
vt 0.65322538 0.80854187
vt 0.65345868 0.74677127
vt 0.65370125 0.68500411
vt 0.65396646 0.62322742
vt 0.65397792 0.43783259
vt 0.65426660 0.56146423
vt 0.65431791 0.37605705
vt 0.65458978 0.31430611
vt 0.65463586 0.49967459
vt 0.65482240 0.25254002
vt 0.65503365 0.19078140
vt 0.65523166 0.12901747
vt 0.65542235 6.7255230e-2
vt 0.65560746 5.4912007e-3
vt 0.67647227 0.38042215
vt 0.67942132 0.55632526
vt 0.71922875 0.33595792
vt 0.72399925 0.59916099
vt 0.77575516 0.31121952
vt 0.78157719 0.62166503
vt 0.83745111 0.30998530
vt 0.84338536 0.62041963
vt 0.89492464 0.33245572
vt 0.90001399 0.59562425
vt 0.93942227 0.37522138
vt 0.94284601 0.55106320
vt 0.96416229 0.43178051
vt 0.96536836 0.49352767
vn -0.83696551 0.53572973 0.11172462
vn -0.60744384 0.65637783 0.44741494
vn -0.83696551 0.29981689 0.45781936
vn -0.24699991 0.18024619 0.95210417
vn -0.71393252 -0.14295184 0.68546709
vn -0.60744384 -0.44741494 0.65637783
vn -0.83696551 -0.45781936 0.29981689
vn -0.60744384 -0.78049935 0.14775908
vn -0.83696551 -0.53572973 -0.11172462
vn -0.60744384 -0.65637783 -0.44741494
vn -0.83696551 -0.29981689 -0.45781936
vn -0.24699991 -0.18024619 -0.95210417
vn -0.71393252 0.14295184 -0.68546709
vn -0.60744384 0.44741494 -0.65637783
vn -0.83696551 0.45781936 -0.29981689
vn -0.60744384 0.78049935 -0.14775908
vn 0.60744384 0.77763233 0.16217259
vn 0.83696551 0.45219457 0.30823498
vn 0.45418155 0.48808928 0.74531066
vn 0.45418155 0.16571766 0.87536094
vn 0.60744384 -0.16217259 0.77763233
vn 0.83696551 -0.30823498 0.45219457
vn 0.60744384 -0.66454243 0.43519576
vn 0.83696551 -0.53770489 0.10179480
vn 0.60744384 -0.77763233 -0.16217259
vn 0.83696551 -0.45219457 -0.30823498
vn 0.45418155 -0.48808928 -0.74531066
vn 0.45418155 -0.16571766 -0.87536094
vn 0.60744384 0.16217259 -0.77763233
vn 0.83696551 0.30823498 -0.45219457
vn 0.60744384 0.66454243 -0.43519576
vn 0.83696551 0.53770489 -0.10179480
g Cylinder1_Cylinder1_auv
usemtl Cylinder1_auv
s 1
f 1/1/1 7/13/7 2/3/2
f 1/16/1 17/33/17 16/15/16
f 2/3/2 6/11/6 3/5/3
f 2/17/2 17/33/17 1/16/1
f 2/17/2 19/35/19 18/34/18
f 3/5/3 5/9/5 4/7/4
f 3/18/3 19/35/19 2/17/2
f 4/19/4 19/35/19 3/18/3
f 4/19/4 21/37/21 20/36/20
f 5/9/5 3/5/3 6/11/6
f 5/20/5 21/37/21 4/19/4
f 6/11/6 2/3/2 7/13/7
f 6/21/6 21/37/21 5/20/5
f 6/21/6 23/40/23 22/38/22
f 7/13/7 1/1/1 8/23/8
f 7/22/7 23/40/23 6/21/6
f 8/23/8 16/2/16 9/24/9
f 8/23/8 23/40/23 7/22/7
f 8/23/8 25/39/25 24/43/24
f 9/24/9 15/4/15 10/14/10
f 9/24/9 25/39/25 8/23/8
f 10/14/10 14/6/14 11/12/11
f 10/25/10 25/39/25 9/24/9
f 10/25/10 27/42/27 26/41/26
f 11/12/11 13/8/13 12/10/12
f 11/26/11 27/42/27 10/25/10
f 12/27/12 27/42/27 11/26/11
f 12/27/12 29/45/29 28/44/28
f 13/8/13 11/12/11 14/6/14
f 13/28/13 29/45/29 12/27/12
f 14/6/14 10/14/10 15/4/15
f 14/29/14 29/45/29 13/28/13
f 14/29/14 31/47/31 30/46/30
f 15/4/15 9/24/9 16/2/16
f 15/30/15 31/47/31 14/29/14
f 16/2/16 8/23/8 1/1/1
f 16/15/16 17/33/17 32/32/32
f 16/31/16 31/47/31 15/30/15
f 17/62/17 23/50/23 32/61/32
f 18/34/18 17/33/17 2/17/2
f 18/60/18 22/52/22 17/62/17
f 19/58/19 21/54/21 18/60/18
f 20/36/20 19/35/19 4/19/4
f 20/56/20 21/54/21 19/58/19
f 22/52/22 18/60/18 21/54/21
f 22/38/22 21/37/21 6/21/6
f 23/50/23 17/62/17 22/52/22
f 24/43/24 23/40/23 8/23/8
f 24/43/24 32/61/32 23/50/23
f 25/39/25 31/59/31 24/43/24
f 26/41/26 25/39/25 10/25/10
f 26/49/26 30/57/30 25/39/25
f 27/51/27 29/55/29 26/49/26
f 28/44/28 27/42/27 12/27/12
f 28/53/28 29/55/29 27/51/27
f 30/57/30 26/49/26 29/55/29
f 30/46/30 29/45/29 14/29/14
f 31/59/31 25/39/25 30/57/30
f 32/61/32 24/43/24 31/59/31
f 32/48/32 31/47/31 16/31/16
